<svg width="63" height="54" viewBox="0 0 63 54" fill="none" xmlns="http://www.w3.org/2000/svg">
<path d="M36.3 14.1H31.317C29.238 14.1 27.192 15.09 26.07 16.41L23.1 7.50002H13.629L5.742 30.6H11.319L13.761 24H23.1V37.2H6.6C2.97 37.2 0 34.23 0 30.6V7.50002C0 3.87002 2.97 0.900024 6.6 0.900024H29.7C33.33 0.900024 36.3 3.87002 36.3 7.50002V14.1ZM21.483 20.7H14.817L18.117 11.031L21.483 20.7ZM33 17.4H56.1C59.73 17.4 62.7 20.37 62.7 24V47.1C62.7 50.73 59.73 53.7 56.1 53.7H33C29.37 53.7 26.4 50.73 26.4 47.1V24C26.4 20.37 29.37 17.4 33 17.4ZM56.925 33.9V30.336H46.464V23.175H42.636V30.336H32.175V33.9H36.399C36.762 36.705 38.247 40.005 40.623 42.546C37.752 43.734 34.386 44.592 33 44.592C32.967 44.658 33.726 47.793 33.66 49.41C36.432 49.41 40.953 47.76 44.484 45.615C48.081 47.76 52.668 49.41 55.506 49.41C55.44 47.793 56.166 44.658 56.166 44.592C54.747 44.592 51.249 43.701 48.312 42.513C50.622 39.972 52.074 36.672 52.437 33.9H56.925ZM44.352 40.269C42.702 38.751 41.547 36.54 41.019 33.9H47.916C47.355 36.54 46.233 38.751 44.616 40.269L44.484 40.368C44.484 40.368 44.385 40.302 44.352 40.269Z" fill="#17B9DC"/>
</svg>
