<svg width="60" height="60" viewBox="0 0 60 60" fill="none" xmlns="http://www.w3.org/2000/svg">
<g clip-path="url(#clip0_571_72)">
<path d="M53.75 45H6.25V50H53.75V45Z" fill="#17B9DC"/>
<path d="M55 52.5H5C4.33696 52.5 3.70107 52.7634 3.23223 53.2322C2.76339 53.7011 2.5 54.337 2.5 55V57.5H57.5V55C57.5 54.337 57.2366 53.7011 56.7678 53.2322C56.2989 52.7634 55.663 52.5 55 52.5Z" fill="#17B9DC"/>
<path d="M17.5 22.5H12.5V42.5H17.5V22.5Z" fill="#17B9DC"/>
<path d="M32.5 22.5H27.5V42.5H32.5V22.5Z" fill="#17B9DC"/>
<path d="M47.5 22.5H42.5V42.5H47.5V22.5Z" fill="#17B9DC"/>
<path d="M56.125 14.25L30 2.5L3.875 14.25C3.4677 14.4704 3.12597 14.7947 2.88448 15.1898C2.64299 15.585 2.51034 16.037 2.5 16.5V17.5C2.5 18.163 2.76339 18.7989 3.23223 19.2678C3.70107 19.7366 4.33696 20 5 20H55C55.663 20 56.2989 19.7366 56.7678 19.2678C57.2366 18.7989 57.5 18.163 57.5 17.5V16.5C57.4897 16.037 57.357 15.585 57.1155 15.1898C56.874 14.7947 56.5323 14.4704 56.125 14.25Z" fill="#17B9DC"/>
</g>
<defs>
<clipPath id="clip0_571_72">
<rect width="60" height="60" fill="white"/>
</clipPath>
</defs>
</svg>
