<svg width="88" height="88" viewBox="0 0 88 88" fill="none" xmlns="http://www.w3.org/2000/svg">
<path d="M52.4109 68.1861C52.4085 68.7688 52.1759 69.327 51.7639 69.739C51.3518 70.1511 50.7937 70.3837 50.2109 70.3861H15.9002C15.3175 70.3837 14.7593 70.1511 14.3473 69.739C13.9352 69.327 13.7026 68.7688 13.7002 68.1861V64.189C13.7026 63.6063 13.9352 63.0482 14.3473 62.6361C14.7593 62.2241 15.3175 61.9915 15.9002 61.989H50.2109C50.794 61.9903 51.3529 62.2225 51.7652 62.6348C52.1775 63.0471 52.4097 63.6059 52.4109 64.189V68.1861ZM39.5954 56.2042C39.2579 56.2044 38.9237 56.1378 38.6121 56.0083C38.3005 55.8787 38.0176 55.6887 37.7798 55.4493L22.9726 40.6467C22.4911 40.1652 22.2206 39.5121 22.2206 38.8312C22.2206 38.1502 22.4911 37.4971 22.9726 37.0156C23.4541 36.5341 24.1072 36.2635 24.7882 36.2635C25.4692 36.2635 26.1223 36.5341 26.6038 37.0156L41.4063 51.8274C41.7656 52.1862 42.0104 52.6436 42.1096 53.1417C42.2088 53.6398 42.158 54.156 41.9636 54.6252C41.7692 55.0944 41.4399 55.4953 41.0175 55.7772C40.5951 56.0591 40.0986 56.2093 39.5907 56.2088L39.5954 56.2042ZM73.5448 60.7987L52.9621 40.2114L57.9874 35.1907L43.2914 20.4947L29.5356 34.2505L44.2316 48.9419L49.3356 43.8425L69.9229 64.4299C70.1614 64.6683 70.4444 64.8574 70.7559 64.9865C71.0674 65.1155 71.4013 65.1819 71.7385 65.1819C72.0757 65.1819 72.4096 65.1155 72.7211 64.9865C73.0326 64.8574 73.3157 64.6683 73.5541 64.4299C73.7925 64.1915 73.9816 63.9084 74.1107 63.5969C74.2397 63.2854 74.3061 62.9515 74.3061 62.6143C74.3061 62.2771 74.2397 61.9432 74.1107 61.6317C73.9816 61.3202 73.7925 61.0372 73.5541 60.7987H73.5448ZM62.7532 33.0417C62.4169 33.0419 62.0838 32.9757 61.773 32.847C61.4622 32.7182 61.18 32.5294 60.9423 32.2914L46.1305 17.4842C45.8921 17.2458 45.703 16.9627 45.5739 16.6512C45.4449 16.3397 45.3785 16.0058 45.3785 15.6686C45.3785 15.3314 45.4449 14.9976 45.5739 14.686C45.703 14.3745 45.8921 14.0915 46.1305 13.8531C46.3689 13.6146 46.652 13.4255 46.9635 13.2965C47.275 13.1674 47.6089 13.101 47.9461 13.101C48.2833 13.101 48.6172 13.1674 48.9287 13.2965C49.2402 13.4255 49.5232 13.6146 49.7617 13.8531L64.5642 28.6602C64.9233 29.0188 65.1679 29.4758 65.2673 29.9734C65.3666 30.471 65.3162 30.9869 65.1224 31.4559C64.9285 31.9249 64.6 32.3258 64.1783 32.6081C63.7566 32.8904 63.2607 33.0412 62.7532 33.0417Z" fill="#17B9DC"/>
</svg>
