<svg width="68" height="68" viewBox="0 0 68 68" fill="none" xmlns="http://www.w3.org/2000/svg">
<path d="M19.8334 36.8333C23.4838 36.8293 27.0359 35.6504 29.9643 33.4709C32.8927 31.2915 35.0418 28.2274 36.0936 24.7318C37.1455 21.2363 37.0442 17.495 35.8048 14.0614C34.5654 10.6279 32.2537 7.68448 29.2117 5.66666H56.6667C58.1696 5.66666 59.611 6.26368 60.6737 7.32638C61.7364 8.38909 62.3334 9.83043 62.3334 11.3333V56.6666C62.3334 58.1695 61.7364 59.6109 60.6737 60.6736C59.611 61.7363 58.1696 62.3333 56.6667 62.3333H19.8334C18.3305 62.3333 16.8892 61.7363 15.8265 60.6736C14.7638 59.6109 14.1667 58.1695 14.1667 56.6666V35.8417C15.9856 36.4917 17.9019 36.8271 19.8334 36.8333Z" fill="#17B9DC"/>
<path d="M25.4999 48.1667C25.4999 47.4152 25.7984 46.6945 26.3298 46.1632C26.8611 45.6318 27.5818 45.3333 28.3332 45.3333H50.9999C51.7514 45.3333 52.472 45.6318 53.0034 46.1632C53.5347 46.6945 53.8332 47.4152 53.8332 48.1667C53.8332 48.9181 53.5347 49.6388 53.0034 50.1701C52.472 50.7015 51.7514 51 50.9999 51H28.3332C27.5818 51 26.8611 50.7015 26.3298 50.1701C25.7984 49.6388 25.4999 48.9181 25.4999 48.1667ZM36.8332 36.8333C36.8332 36.0819 37.1318 35.3612 37.6631 34.8299C38.1945 34.2985 38.9151 34 39.6666 34H50.9999C51.7514 34 52.472 34.2985 53.0034 34.8299C53.5347 35.3612 53.8332 36.0819 53.8332 36.8333C53.8332 37.5848 53.5347 38.3054 53.0034 38.8368C52.472 39.3682 51.7514 39.6667 50.9999 39.6667H39.6666C38.9151 39.6667 38.1945 39.3682 37.6631 38.8368C37.1318 38.3054 36.8332 37.5848 36.8332 36.8333ZM8.49991 31.1667C8.12702 31.1688 7.75738 31.0973 7.41217 30.9563C7.06697 30.8153 6.75299 30.6076 6.48824 30.345C6.22268 30.0816 6.01189 29.7682 5.86805 29.423C5.7242 29.0777 5.65015 28.7074 5.65015 28.3333C5.65015 27.9593 5.7242 27.589 5.86805 27.2437C6.01189 26.8984 6.22268 26.5851 6.48824 26.3217L23.4882 9.32166C23.7524 9.05749 24.066 8.84793 24.4112 8.70496C24.7564 8.56199 25.1263 8.4884 25.4999 8.4884C25.8735 8.4884 26.2435 8.56199 26.5886 8.70496C26.9338 8.84793 27.2474 9.05749 27.5116 9.32166C27.7757 9.58584 27.9853 9.89946 28.1283 10.2446C28.2712 10.5898 28.3448 10.9597 28.3448 11.3333C28.3448 11.7069 28.2712 12.0769 28.1283 12.422C27.9853 12.7672 27.7757 13.0808 27.5116 13.345L10.5116 30.345C10.2468 30.6076 9.93285 30.8153 9.58764 30.9563C9.24244 31.0973 8.87279 31.1688 8.49991 31.1667ZM24.0832 22.6667C23.2427 22.6667 22.421 22.9159 21.7221 23.3829C21.0232 23.8499 20.4784 24.5137 20.1568 25.2903C19.8351 26.0668 19.7509 26.9214 19.9149 27.7458C20.0789 28.5702 20.4837 29.3275 21.078 29.9219C21.6724 30.5162 22.4297 30.921 23.2541 31.085C24.0785 31.249 24.9331 31.1648 25.7096 30.8432C26.4862 30.5215 27.15 29.9767 27.617 29.2778C28.084 28.5789 28.3332 27.7572 28.3332 26.9167C28.3332 25.7895 27.8855 24.7085 27.0884 23.9115C26.2914 23.1144 25.2104 22.6667 24.0832 22.6667ZM9.91657 8.5C9.076 8.5 8.25431 8.74926 7.5554 9.21625C6.85649 9.68325 6.31176 10.347 5.99009 11.1236C5.66841 11.9002 5.58425 12.7547 5.74824 13.5791C5.91223 14.4035 6.317 15.1608 6.91137 15.7552C7.50574 16.3496 8.26302 16.7543 9.08744 16.9183C9.91186 17.0823 10.7664 16.9982 11.543 16.6765C12.3196 16.3548 12.9833 15.8101 13.4503 15.1112C13.9173 14.4123 14.1666 13.5906 14.1666 12.75C14.1666 11.6228 13.7188 10.5418 12.9218 9.74479C12.1247 8.94776 11.0437 8.5 9.91657 8.5Z" fill="#17B9DC"/>
<path d="M25.5 48.1667C25.5 47.4152 25.7985 46.6945 26.3299 46.1632C26.8612 45.6318 27.5819 45.3333 28.3333 45.3333H51C51.7514 45.3333 52.4721 45.6318 53.0035 46.1632C53.5348 46.6945 53.8333 47.4152 53.8333 48.1667C53.8333 48.9181 53.5348 49.6388 53.0035 50.1701C52.4721 50.7015 51.7514 51 51 51H28.3333C27.5819 51 26.8612 50.7015 26.3299 50.1701C25.7985 49.6388 25.5 48.9181 25.5 48.1667ZM36.8333 36.8333C36.8333 36.0819 37.1318 35.3612 37.6632 34.8299C38.1945 34.2985 38.9152 34 39.6667 34H51C51.7514 34 52.4721 34.2985 53.0035 34.8299C53.5348 35.3612 53.8333 36.0819 53.8333 36.8333C53.8333 37.5848 53.5348 38.3055 53.0035 38.8368C52.4721 39.3682 51.7514 39.6667 51 39.6667H39.6667C38.9152 39.6667 38.1945 39.3682 37.6632 38.8368C37.1318 38.3055 36.8333 37.5848 36.8333 36.8333Z" fill="white"/>
</svg>
