<svg width="62" height="62" viewBox="0 0 62 62" fill="none" xmlns="http://www.w3.org/2000/svg">
<path d="M19.5712 21.3125H24.3047C24.4852 18.0393 25.0967 15.0943 26.0255 12.7863C22.67 14.3896 20.2105 17.532 19.5712 21.3125ZM19.5712 25.1875C20.2118 28.968 22.67 32.1104 26.0255 33.7137C25.0955 31.4057 24.4852 28.4607 24.3047 25.1875H19.5712ZM31 34.7164C31.9312 33.8142 33.5151 30.5483 33.8372 25.1875H28.1616C28.4849 30.5471 30.0688 33.8142 31 34.7164ZM28.1628 21.3125H33.8384C33.5163 15.9529 31.9324 12.6858 31.0012 11.7836C30.0688 12.6858 28.4849 15.9529 28.1628 21.3125ZM35.9745 33.7137C39.33 32.1104 41.7895 28.968 42.4288 25.1875H37.6953C37.5148 28.4607 36.9045 31.4057 35.9745 33.7137ZM54.25 0H11.625C7.34434 0 3.875 3.46934 3.875 7.75V54.25C3.875 58.5307 7.34434 62 11.625 62H54.25C56.3897 62 58.125 60.2647 58.125 58.125V3.875C58.125 1.73527 56.3897 0 54.25 0ZM44.5625 50.375H17.4375C16.3719 50.375 15.5 49.5031 15.5 48.4375C15.5 47.3719 16.3719 46.5 17.4375 46.5H44.5625C45.6281 46.5 46.5 47.3719 46.5 48.4375C46.5 49.5031 45.6281 50.375 44.5625 50.375ZM31 38.75C22.4399 38.75 15.5 31.8101 15.5 23.25C15.5 14.6899 22.4399 7.75 31 7.75C39.5601 7.75 46.5 14.6899 46.5 23.25C46.5 31.8101 39.5601 38.75 31 38.75ZM35.9745 12.7863C36.9045 15.0943 37.5148 18.0393 37.6953 21.3125H42.4288C41.7895 17.532 39.33 14.3896 35.9745 12.7863Z" fill="#17B9DC"/>
</svg>
